<svg width="21" height="20" viewBox="0 0 21 20" fill="none" xmlns="http://www.w3.org/2000/svg">
<path d="M10.0859 12C11.1905 12 12.0859 11.1046 12.0859 10C12.0859 8.89543 11.1905 8 10.0859 8C8.98137 8 8.08594 8.89543 8.08594 10C8.08594 11.1046 8.98137 12 10.0859 12Z" fill="#58C4DC"/>
<path d="M10.0863 13.6125C15.3117 13.6125 19.5476 11.9951 19.5476 9.99995C19.5476 8.00482 15.3117 6.38745 10.0863 6.38745C4.86098 6.38745 0.625 8.00482 0.625 9.99995C0.625 11.9951 4.86098 13.6125 10.0863 13.6125Z" stroke="#58C4DC"/>
<path d="M6.958 11.8062C9.57067 16.3315 13.0893 19.1913 14.8172 18.1937C16.545 17.1962 15.8277 12.719 13.215 8.19374C10.6024 3.66846 7.08369 0.808686 5.35586 1.80625C3.62802 2.80382 4.34532 7.28097 6.958 11.8062Z" stroke="#58C4DC"/>
<path d="M6.95762 8.19354C4.34494 12.7188 3.62764 17.196 5.35548 18.1935C7.08331 19.1911 10.602 16.3313 13.2147 11.806C15.8273 7.28077 16.5446 2.80362 14.8168 1.80605C13.089 0.808488 9.57029 3.66826 6.95762 8.19354Z" stroke="#58C4DC"/>
</svg>
